<svg width="17" height="16" viewBox="0 0 17 16" fill="none" xmlns="http://www.w3.org/2000/svg">
<path id="Vector" d="M15.3571 6.28571H10.2143V1.14286C10.2143 0.511786 9.7025 0 9.07143 0H7.92857C7.2975 0 6.78571 0.511786 6.78571 1.14286V6.28571H1.64286C1.01179 6.28571 0.5 6.7975 0.5 7.42857V8.57143C0.5 9.2025 1.01179 9.71429 1.64286 9.71429H6.78571V14.8571C6.78571 15.4882 7.2975 16 7.92857 16H9.07143C9.7025 16 10.2143 15.4882 10.2143 14.8571V9.71429H15.3571C15.9882 9.71429 16.5 9.2025 16.5 8.57143V7.42857C16.5 6.7975 15.9882 6.28571 15.3571 6.28571Z" fill="#96C431"/>
</svg>
