<svg width="19" height="16" viewBox="0 0 19 16" fill="none" xmlns="http://www.w3.org/2000/svg">
<path id="Vector" d="M1.71429 0C0.767857 0 0 0.767857 0 1.71429V14.2857C0 15.2321 0.767857 16 1.71429 16H16.5714C17.5179 16 18.2857 15.2321 18.2857 14.2857V1.71429C18.2857 0.767857 17.5179 0 16.5714 0H1.71429ZM1.71429 1.14286H5.5C5.61786 1.14286 5.71429 1.23929 5.71429 1.35714V2.07143C5.71429 2.18929 5.61786 2.28571 5.5 2.28571H1.35714C1.23929 2.28571 1.14286 2.18929 1.14286 2.07143V1.71429C1.14286 1.4 1.4 1.14286 1.71429 1.14286ZM16.9286 4.57143H1.35714C1.23929 4.57143 1.14286 4.475 1.14286 4.35714V3.07143C1.14286 2.95357 1.23929 2.85714 1.35714 2.85714H6.28571L7.36429 1.23929C7.40357 1.17857 7.47143 1.14286 7.54286 1.14286H16.5714C16.8857 1.14286 17.1429 1.4 17.1429 1.71429V4.35714C17.1429 4.475 17.0464 4.57143 16.9286 4.57143ZM9.14286 14C6.77857 14 4.85714 12.0786 4.85714 9.71429C4.85714 7.35 6.77857 5.42857 9.14286 5.42857C11.5071 5.42857 13.4286 7.35 13.4286 9.71429C13.4286 12.0786 11.5071 14 9.14286 14ZM9.14286 6.57143C7.41071 6.57143 6 7.98214 6 9.71429C6 11.4464 7.41071 12.8571 9.14286 12.8571C10.875 12.8571 12.2857 11.4464 12.2857 9.71429C12.2857 7.98214 10.875 6.57143 9.14286 6.57143ZM7.42857 10.2857C7.11429 10.2857 6.85714 10.0286 6.85714 9.71429C6.85714 8.45357 7.88214 7.42857 9.14286 7.42857C9.45714 7.42857 9.71429 7.68571 9.71429 8C9.71429 8.31429 9.45714 8.57143 9.14286 8.57143C8.51429 8.57143 8 9.08571 8 9.71429C8 10.0286 7.74286 10.2857 7.42857 10.2857Z" fill="#96C431"/>
</svg>
