<svg width="22" height="17" viewBox="0 0 22 17" fill="none" xmlns="http://www.w3.org/2000/svg">
<path id="Vector" d="M21.0938 14.2143H0.78125C0.57405 14.2143 0.375336 14.2745 0.228823 14.3817C0.08231 14.4888 0 14.6342 0 14.7857L0 15.9286C0 16.0801 0.08231 16.2255 0.228823 16.3326C0.375336 16.4398 0.57405 16.5 0.78125 16.5H21.0938C21.301 16.5 21.4997 16.4398 21.6462 16.3326C21.7927 16.2255 21.875 16.0801 21.875 15.9286V14.7857C21.875 14.6342 21.7927 14.4888 21.6462 14.3817C21.4997 14.2745 21.301 14.2143 21.0938 14.2143ZM21.0938 9.64286H0.78125C0.57405 9.64286 0.375336 9.70306 0.228823 9.81022C0.08231 9.91739 0 10.0627 0 10.2143L0 11.3571C0 11.5087 0.08231 11.654 0.228823 11.7612C0.375336 11.8684 0.57405 11.9286 0.78125 11.9286H21.0938C21.301 11.9286 21.4997 11.8684 21.6462 11.7612C21.7927 11.654 21.875 11.5087 21.875 11.3571V10.2143C21.875 10.0627 21.7927 9.91739 21.6462 9.81022C21.4997 9.70306 21.301 9.64286 21.0938 9.64286ZM21.0938 5.07143H0.78125C0.57405 5.07143 0.375336 5.13163 0.228823 5.2388C0.08231 5.34596 0 5.4913 0 5.64286L0 6.78571C0 6.93727 0.08231 7.08261 0.228823 7.18978C0.375336 7.29694 0.57405 7.35714 0.78125 7.35714H21.0938C21.301 7.35714 21.4997 7.29694 21.6462 7.18978C21.7927 7.08261 21.875 6.93727 21.875 6.78571V5.64286C21.875 5.4913 21.7927 5.34596 21.6462 5.2388C21.4997 5.13163 21.301 5.07143 21.0938 5.07143ZM21.0938 0.5H0.78125C0.57405 0.5 0.375336 0.560204 0.228823 0.667368C0.08231 0.774531 0 0.919876 0 1.07143L0 2.21429C0 2.36584 0.08231 2.51118 0.228823 2.61835C0.375336 2.72551 0.57405 2.78571 0.78125 2.78571H21.0938C21.301 2.78571 21.4997 2.72551 21.6462 2.61835C21.7927 2.51118 21.875 2.36584 21.875 2.21429V1.07143C21.875 0.919876 21.7927 0.774531 21.6462 0.667368C21.4997 0.560204 21.301 0.5 21.0938 0.5Z" fill="#96C431"/>
</svg>
