<svg width="17" height="16" viewBox="0 0 17 16" fill="none" xmlns="http://www.w3.org/2000/svg">
<path id="Vector" d="M6.97962 1.07167L7.79299 0.258301C8.13739 -0.0861003 8.6943 -0.0861003 9.03504 0.258301L16.1575 7.37715C16.5019 7.72155 16.5019 8.27845 16.1575 8.61919L9.03504 15.7417C8.69063 16.0861 8.13373 16.0861 7.79299 15.7417L6.97962 14.9283C6.63155 14.5803 6.63888 14.0124 6.99428 13.6716L11.4092 9.46554H0.879322C0.392031 9.46554 0 9.07351 0 8.58622V7.41379C0 6.9265 0.392031 6.53446 0.879322 6.53446H11.4092L6.99428 2.32837C6.63522 1.98763 6.62789 1.41974 6.97962 1.07167Z" fill="#FE8A1F"/>
</svg>
